<svg xmlns="http://www.w3.org/2000/svg" viewBox="0 0 512 512" width="512" height="512">
  <defs>
    <linearGradient id="bgGrad" x1="0%" y1="0%" x2="0%" y2="100%">
      <stop offset="0%" stop-color="#2a2eb8" />
      <stop offset="100%" stop-color="#1f2398" />
    </linearGradient>
    <filter id="cardShadow" x="-20%" y="-15%" width="140%" height="145%">
      <feDropShadow dx="0" dy="16" stdDeviation="16" flood-color="#0c103e" flood-opacity="0.48" />
    </filter>
    <filter id="loopShadow" x="-30%" y="-20%" width="160%" height="160%">
      <feDropShadow dx="0" dy="2.5" stdDeviation="2.5" flood-color="#0c103e" flood-opacity="0.32" />
    </filter>
    <clipPath id="cardClip">
      <rect x="84" y="109" width="344" height="312" rx="42" ry="42" />
    </clipPath>
  </defs>

  <!-- Background squircle -->
  <rect width="512" height="512" rx="116" ry="116" fill="url(#bgGrad)" />

  
    <!-- Calendar Card Dropshadow -->
    <g filter="url(#cardShadow)">
      <!-- Base Card & Purple Header clipped to rounded card corners -->
      <g clip-path="url(#cardClip)">
        <rect x="84" y="109" width="344" height="312" fill="#ffffff" />
        <rect x="84" y="109" width="344" height="74" fill="#584fe6" />
      </g>

      <!-- 3 Binder Rings across the top edge (centered vertically over top edge of header) -->
      <g filter="url(#loopShadow)">
        <rect x="164" y="91" width="22" height="38" rx="11" ry="11" fill="none" stroke="#ffffff" stroke-width="4.8" stroke-linecap="round" />
        <rect x="245" y="91" width="22" height="38" rx="11" ry="11" fill="none" stroke="#ffffff" stroke-width="4.8" stroke-linecap="round" />
        <rect x="326" y="91" width="22" height="38" rx="11" ry="11" fill="none" stroke="#ffffff" stroke-width="4.8" stroke-linecap="round" />
      </g>

      <!-- Calendar Schedule Blocks -->
      <!-- Column 1: x = 110, width = 86 -->
      <rect x="110" y="203" width="86" height="62" rx="14" ry="14" fill="#42a2f8" />
      <rect x="110" y="279" width="86" height="120" rx="14" ry="14" fill="#27be7c" />

      <!-- Column 2: x = 213, width = 86 -->
      <rect x="213" y="203" width="86" height="120" rx="14" ry="14" fill="#f5771e" />
      <rect x="213" y="337" width="86" height="62" rx="14" ry="14" fill="#9b67ea" />

      <!-- Column 3: x = 316, width = 86 -->
      <rect x="316" y="203" width="86" height="78" rx="14" ry="14" fill="#eb4987" />
      <rect x="316" y="295" width="86" height="104" rx="14" ry="14" fill="#151b3d" />

      <!-- Graduation Cap in Midnight Navy Tile (center cx=359, cy=347) -->
      <g stroke="#ffffff" stroke-linecap="round" stroke-linejoin="round" fill="none">
        <polygon points="359,328 386,339 359,350 332,339" stroke-width="4.2" />
        <path d="M 340,344 L 340,354 C 340,363 378,363 378,354 L 378,344" stroke-width="3.8" />
        <path d="M 386,339 L 388,356 C 388,360 384,362 381,362" stroke-width="3.5" />
        <circle cx="380" cy="362" r="2.2" fill="#ffffff" stroke="none" />
      </g>
    </g>
  
</svg>